# xmcd CD database file
#
# Track frame offsets:
#	150
#	20151
#	21079
#	30808
#	43299
#	43998
#	49644
#	57214
#	62913
#	63612
#	75925
#	86081
#	96909
#	97971
#	99501
#	113117
#	124161
#	132050
#	143869
#	151539
#	154101
#	166030
#	177565
#	186504
#	195592
#	206483
#	219809
#	228190
#	237966
#	239039
#	251850
#	261410
#	274477
#	287983
#
# Disc length: 3981 seconds
#
# Revision: 10
# Processed by: cddbd v1.4PL0 Copyright (c) Steve Scherf et al.
# Submitted via: CDex 1.40Beta9
#
DISCID=ea0f8b22
DTITLE=The Beatles - Anthology 1 - Disc 1
DYEAR=2001
DGENRE=Oldies
TTITLE0=Free As A Bird
TTITLE1=Speech: John Lennon
TTITLE2=That'll Be The Day
TTITLE3=In Spite Of All The Danger
TTITLE4=Speech: Paul McCartney
TTITLE5=Hallelujah, I Love Her So
TTITLE6=You'll Be Mine
TTITLE7=Cayenne
TTITLE8=Speech: Paul
TTITLE9=My Bonnie
TTITLE10=Ain't She Sweet
TTITLE11=Cry For A Shadow
TTITLE12=Speech: John
TTITLE13=Speech: Brian Epstein
TTITLE14=Searchin'
TTITLE15=Three Cool Cats
TTITLE16=The Sheik Of Araby
TTITLE17=Like Dreamers Do
TTITLE18=Hello Little Girl
TTITLE19=Speech: Brian Epstein (2)
TTITLE20=Besame Mucho
TTITLE21=Love Me Do
TTITLE22=How Do You Do It
TTITLE23=Please Please Me
TTITLE24=One After 909 (False Starts)
TTITLE25=One After 909
TTITLE26=Lend Me Your Comb
TTITLE27=I'll Get You
TTITLE28=Speech: John (2)
TTITLE29=I Saw Her Standing There
TTITLE30=From Me To You
TTITLE31=Money (That's What I Want)
TTITLE32=You Really Got A Hold On Me
TTITLE33=Roll Over Beethoven
EXTD=YEAR: 2001 ID3G: 11
EXTT0=
EXTT1=
EXTT2=
EXTT3=
EXTT4=
EXTT5=
EXTT6=
EXTT7=
EXTT8=
EXTT9=
EXTT10=
EXTT11=
EXTT12=
EXTT13=
EXTT14=
EXTT15=
EXTT16=
EXTT17=
EXTT18=
EXTT19=
EXTT20=
EXTT21=
EXTT22=
EXTT23=
EXTT24=
EXTT25=
EXTT26=
EXTT27=
EXTT28=
EXTT29=
EXTT30=
EXTT31=
EXTT32=
EXTT33=
PLAYORDER=
